<?xml version="1.0" standalone="no"?>
<!DOCTYPE svg PUBLIC "-//W3C//DTD SVG 20010904//EN"
 "http://www.w3.org/TR/2001/REC-SVG-20010904/DTD/svg10.dtd">
<svg version="1.0" xmlns="http://www.w3.org/2000/svg"
 width="500.000000pt" height="500.000000pt" viewBox="0 0 500.000000 500.000000"
 preserveAspectRatio="xMidYMid meet">
<metadata>
Created by potrace 1.14, written by Peter Selinger 2001-2017
</metadata>
<g transform="translate(0.000000,500.000000) scale(0.100000,-0.100000)"
fill="#000000" stroke="none">
<path d="M1825 4549 c-11 -4 -37 -8 -57 -8 -32 -1 -40 -7 -66 -45 -32 -47 -79
-195 -84 -263 l-3 -41 -32 32 c-18 17 -33 41 -33 54 l0 22 -21 -21 c-20 -20
-22 -20 -40 -3 -10 9 -22 14 -26 11 -4 -4 2 -14 13 -21 24 -19 0 -16 -36 3
-24 14 -25 13 -7 -6 9 -11 14 -22 11 -26 -4 -3 17 -21 45 -38 55 -35 63 -43
29 -30 -13 4 -29 6 -36 4 -7 -3 -19 0 -27 7 -46 38 -198 64 -235 40 -12 -8 -9
-10 13 -10 35 0 26 2 109 -21 71 -20 135 -54 190 -102 l28 -24 -73 3 c-39 2
-88 6 -107 9 -19 4 -42 6 -50 6 -8 -1 -28 -1 -45 -1 -29 0 -29 -1 -11 -15 19
-14 18 -15 -10 -15 -26 -1 -27 -2 -12 -14 10 -7 15 -16 11 -19 -3 -4 3 -7 15
-7 11 0 24 -5 27 -10 4 -6 10 -8 15 -5 4 3 11 -2 14 -11 4 -12 15 -14 48 -9
28 4 38 2 29 -4 -21 -14 -4 -30 29 -26 19 2 36 -3 47 -13 9 -9 21 -17 27 -18
6 0 23 -6 38 -13 24 -12 25 -16 16 -43 -6 -16 -8 -32 -5 -35 4 -3 2 -14 -4
-24 -7 -14 -14 -16 -32 -10 -63 26 -80 31 -127 37 -19 2 -49 9 -66 15 -35 11
-141 10 -164 -1 -12 -7 -15 -24 -13 -82 3 -111 8 -131 69 -284 24 -61 44 -116
44 -123 0 -6 11 -34 25 -61 22 -43 53 -123 60 -155 1 -5 5 -18 10 -28 4 -9 5
-26 2 -37 -3 -11 -1 -23 4 -26 5 -3 9 -18 9 -33 0 -21 9 -36 34 -55 33 -25 34
-26 21 -63 -10 -28 -12 -78 -8 -189 3 -91 1 -166 -6 -190 -25 -92 -24 -106 14
-168 46 -76 69 -98 141 -136 32 -17 66 -37 74 -45 39 -34 87 -48 160 -49 78
-1 76 1 64 -46 -2 -8 -8 -35 -14 -60 -6 -25 -19 -54 -29 -65 -9 -11 -30 -40
-45 -65 -16 -25 -37 -54 -47 -65 -18 -21 -41 -129 -32 -153 3 -7 -3 -15 -13
-18 -11 -3 -27 -18 -36 -34 -10 -17 -40 -41 -79 -60 -73 -36 -98 -62 -142
-150 -43 -83 -73 -101 -170 -104 -39 -1 -78 -5 -85 -10 -13 -8 -9 -62 8 -101
24 -54 40 -98 36 -102 -2 -2 -33 1 -70 8 -36 6 -73 9 -81 5 -8 -3 -17 -1 -20
4 -3 4 -24 7 -48 6 -43 -3 -48 -4 -107 -26 -19 -6 -51 -15 -70 -19 -19 -3 -35
-11 -35 -17 0 -15 -31 -44 -39 -37 -3 4 -6 2 -6 -3 0 -6 5 -15 10 -20 15 -15
4 -38 -23 -49 -12 -6 -22 -15 -22 -21 0 -15 -67 -84 -81 -84 -16 0 -47 -37
-36 -44 9 -5 43 -11 127 -20 22 -3 53 -9 68 -15 15 -6 27 -8 27 -5 0 2 9 0 21
-6 27 -15 54 -21 119 -27 49 -4 105 -20 151 -43 9 -5 42 -12 75 -16 32 -4 61
-8 64 -9 12 -3 109 -15 165 -21 111 -12 160 -11 203 1 39 12 43 12 60 -9 36
-47 111 -62 177 -36 17 7 73 12 130 11 119 -2 150 -5 167 -18 21 -15 105 -6
153 16 61 29 81 27 88 -7 5 -25 10 -27 46 -27 30 0 45 6 56 22 20 28 49 19 42
-13 -3 -19 -1 -22 12 -15 21 10 70 5 110 -12 29 -12 38 -12 64 1 17 9 52 17
77 18 50 3 62 6 103 22 16 7 34 12 40 12 7 0 23 8 37 17 18 13 48 17 125 19
55 1 128 5 160 9 33 4 68 8 78 9 9 0 17 5 17 10 0 5 3 6 7 3 7 -8 53 31 53 45
0 12 50 56 72 63 9 3 27 0 40 -8 13 -8 46 -15 73 -16 28 -1 59 -2 70 -3 56 -6
144 19 173 49 7 7 32 13 55 13 48 1 77 14 105 50 11 14 43 36 71 50 28 14 52
30 55 35 2 6 -7 32 -19 58 -22 45 -23 48 -5 57 35 19 115 93 133 124 11 17 30
41 43 54 14 14 24 34 23 50 0 33 -67 151 -94 166 -10 6 -37 21 -58 34 -39 24
-76 28 -174 19 -79 -8 -116 -30 -144 -87 -32 -66 -55 -64 -51 5 3 49 5 63 18
172 8 60 -12 103 -47 103 -11 0 -49 11 -83 25 -94 37 -154 52 -219 54 -70 1
-77 4 -77 39 0 26 -20 136 -39 214 -5 21 -25 60 -44 87 -20 27 -45 68 -56 90
-21 40 -21 41 -3 58 10 10 29 25 42 33 48 32 70 52 65 60 -8 13 6 40 21 40 21
0 17 13 -8 32 -67 50 -97 70 -135 90 -24 12 -43 25 -43 29 0 3 17 18 39 32 21
14 62 53 92 87 29 34 65 68 79 75 40 21 118 105 139 150 13 28 21 72 24 149 6
104 7 111 44 170 35 56 38 67 38 136 0 64 -4 82 -29 128 -50 89 -132 164 -232
212 -49 23 -105 48 -126 57 -33 13 -37 18 -41 61 -2 26 -16 78 -31 116 -21 55
-27 93 -31 179 -3 60 -12 141 -21 180 -8 40 -18 85 -21 102 -5 27 -35 59 -58
61 -30 2 -80 -44 -150 -137 -22 -29 -54 -68 -72 -87 -18 -18 -43 -46 -57 -62
l-24 -29 -59 57 c-91 90 -246 170 -380 197 -18 4 -33 10 -33 14 0 11 -180 94
-270 124 -103 35 -152 45 -175 36z m-290 -409 c3 -6 -1 -7 -9 -4 -18 7 -21 14
-7 14 6 0 13 -4 16 -10z"/>
</g>
</svg>
